<svg width="720" height="1024" viewBox="0 0 720 1024" fill="none" xmlns="http://www.w3.org/2000/svg">
<mask id="mask0_57:560" style="mask-type:alpha" maskUnits="userSpaceOnUse" x="0" y="0" width="720" height="1024">
<rect width="720" height="1024" fill="black"/>
</mask>
<g mask="url(#mask0_57:560)">
<g opacity="0.8">
<mask id="mask1_57:560" style="mask-type:alpha" maskUnits="userSpaceOnUse" x="439" y="838" width="438" height="438">
<circle cx="657.86" cy="1056.86" r="218.86" fill="#C4C4C4"/>
</mask>
<g mask="url(#mask1_57:560)">
<path d="M620.63 779.279C538.63 770.329 505.55 776.279 461.77 778.989L461.42 782.209C505.19 779.509 538.26 773.549 620.28 782.499C754.87 797.189 752.09 822.669 886.68 837.359C894.61 838.219 902.08 838.949 909.14 839.549L909.49 836.329C902.43 835.729 894.96 834.999 887.03 834.139C752.44 819.449 755.22 793.969 620.63 779.279Z" fill="#006551"/>
<path d="M618.68 797.139C536.68 788.139 503.6 794.139 459.82 796.849L459.47 800.069C503.25 797.369 536.32 791.399 618.33 800.349C752.92 815.039 750.13 840.519 884.73 855.209C892.66 856.079 900.13 856.799 907.19 857.409L907.54 854.189C900.48 853.575 892.997 852.842 885.09 851.989C750.49 837.299 753.28 811.829 618.68 797.139Z" fill="#006551"/>
<path d="M616.73 814.989C534.73 806.039 501.65 811.989 457.87 814.709L457.52 817.919C501.3 815.219 534.37 809.259 616.38 818.209C750.97 832.899 748.19 858.379 882.78 873.069C890.71 873.929 898.18 874.659 905.24 875.259L905.6 872.039C898.53 871.439 891.06 870.719 883.14 869.849C748.55 855.159 751.33 829.679 616.73 814.989Z" fill="#006551"/>
<path d="M614.79 832.849C532.79 823.849 499.7 829.849 455.92 832.559L455.57 835.779C499.35 833.079 532.42 827.109 614.43 836.069C749.03 850.749 746.24 876.239 880.84 890.929C888.76 891.789 896.243 892.519 903.29 893.119L903.65 889.899C896.58 889.299 889.11 888.569 881.19 887.709C746.6 873.019 749.38 847.539 614.79 832.849Z" fill="#006551"/>
<path d="M612.84 850.749C530.84 841.799 497.75 847.749 453.97 850.469L453.62 853.689C497.4 850.979 530.47 845.019 612.48 853.969C747.13 868.609 744.3 894.089 878.89 908.749C886.81 909.619 894.28 910.339 901.35 910.939L901.7 907.729C894.63 907.119 887.17 906.399 879.24 905.529C744.65 890.869 747.43 865.389 612.84 850.749Z" fill="#006551"/>
<path d="M610.89 868.559C528.89 859.609 495.8 865.559 452.02 868.269L451.67 871.489C495.45 868.789 528.52 862.829 610.54 871.779C745.13 886.469 742.35 911.949 876.94 926.639C884.87 927.499 892.33 928.229 899.4 928.829L899.75 925.609C892.68 925.009 885.22 924.279 877.29 923.419C742.7 908.749 745.48 883.249 610.89 868.559Z" fill="#006551"/>
<path d="M608.94 886.419C526.94 877.419 493.85 883.419 450.07 886.129L449.72 889.349C493.5 886.649 526.57 880.679 608.59 889.629C743.18 904.319 740.4 929.799 874.99 944.489C882.92 945.359 890.38 946.079 897.45 946.689L897.8 943.469C890.73 942.859 883.27 942.139 875.34 941.269C740.75 926.579 743.53 901.109 608.94 886.419Z" fill="#006551"/>
<path d="M606.99 904.269C524.99 895.319 491.9 901.269 448.13 903.989L447.77 907.199C491.55 904.499 524.62 898.539 606.64 907.489C741.23 922.179 738.45 947.659 873.04 962.349C880.97 963.209 888.43 963.939 895.5 964.539L895.85 961.319C888.78 960.719 881.32 959.999 873.39 959.129C738.8 944.439 741.58 918.959 606.99 904.269Z" fill="#006551"/>
<path d="M605.04 922.129C523.04 913.179 489.95 919.129 446.18 921.839L445.83 925.059C489.6 922.359 522.67 916.389 604.69 925.349C739.28 940.039 736.5 965.519 871.09 980.209C879.02 981.069 886.48 981.799 893.55 982.399L893.9 979.179C886.83 978.579 879.37 977.849 871.44 976.989C736.85 962.299 739.63 936.819 605.04 922.129Z" fill="#006551"/>
<path d="M603.13 939.979C521.13 930.979 488.05 936.979 444.27 939.699L443.92 942.919C487.69 940.209 520.76 934.249 602.78 943.199C737.33 957.889 734.55 983.369 869.13 998.059C877.06 998.929 884.52 999.649 891.59 1000.25L891.94 997.039C884.88 996.429 877.41 995.709 869.48 994.839C734.9 980.149 737.68 954.669 603.13 939.979Z" fill="#006551"/>
<path d="M601.13 957.839C519.13 948.839 486.05 954.839 442.27 957.549L441.93 960.749C485.7 958.049 518.77 952.089 600.79 961.039C735.38 975.729 732.6 1001.21 867.19 1015.9C875.12 1016.76 882.59 1017.49 889.65 1018.09L890 1014.87C882.94 1014.27 875.47 1013.54 867.54 1012.68C732.95 998.009 735.73 972.529 601.13 957.839Z" fill="#006551"/>
<path d="M599.19 975.749C517.19 966.749 484.11 972.749 440.33 975.459L439.98 978.679C483.76 975.979 516.83 970.009 598.84 978.959C733.43 993.599 730.65 1019.08 865.24 1033.75C873.17 1034.62 880.64 1035.34 887.7 1035.95L888.05 1032.73C880.99 1032.12 873.507 1031.39 865.6 1030.53C731.01 1015.86 733.79 990.389 599.19 975.749Z" fill="#006551"/>
<path d="M597.25 993.549C515.25 984.599 482.16 990.549 438.38 993.269L438.03 996.479C481.81 993.779 514.88 987.819 596.89 996.769C731.48 1011.46 728.7 1036.94 863.29 1051.63C871.21 1052.49 878.693 1053.22 885.74 1053.82L886.1 1050.6C879.03 1050 871.56 1049.28 863.64 1048.41C729.06 1033.75 731.84 1008.24 597.25 993.549Z" fill="#006551"/>
<path d="M595.3 1011.41C513.3 1002.46 480.21 1008.41 436.43 1011.12L436.08 1014.34C479.86 1011.64 512.93 1005.67 594.94 1014.63C729.54 1029.32 726.75 1054.8 861.35 1069.49C869.27 1070.35 876.74 1071.08 883.81 1071.68L884.16 1068.46C877.09 1067.86 869.63 1067.13 861.7 1066.27C727.13 1051.58 729.89 1026.1 595.3 1011.41Z" fill="#006551"/>
<path d="M593.35 1029.26C511.35 1020.26 478.26 1026.26 434.48 1028.98L434.13 1032.2C477.91 1029.49 510.98 1023.53 593 1032.48C727.59 1047.17 724.81 1072.65 859.4 1087.34C867.32 1088.21 874.79 1088.93 881.86 1089.53L882.21 1086.32C875.14 1085.71 867.68 1084.99 859.75 1084.12C725.13 1069.43 727.94 1043.95 593.35 1029.26Z" fill="#006551"/>
</g>
</g>
<g opacity="0.6">
<mask id="mask2_57:560" style="mask-type:alpha" maskUnits="userSpaceOnUse" x="-77" y="-64" width="300" height="300">
<circle cx="73" cy="86" r="150" fill="#C4C4C4"/>
</mask>
<g mask="url(#mask2_57:560)">
<path d="M239.099 -59.4217C237.516 -61.0049 236.152 -62.5196 234.987 -63.9657H238.14C238.62 -63.4311 239.113 -62.8828 239.648 -62.3277V-58.9008C239.442 -59.079 239.277 -59.2504 239.099 -59.4217ZM239.62 -43.7816V-46.667C237.063 -48.4941 234.669 -50.5396 232.465 -52.7805C229.057 -56.0604 226.153 -59.8274 223.85 -63.9589H221.15C223.622 -59.17 226.863 -54.8194 230.745 -51.0808C233.438 -48.342 236.413 -45.8954 239.62 -43.7816ZM222.438 -42.7604C229.182 -36.0163 234.59 -33.1995 239.62 -31.2393V-33.8163C235.001 -35.7011 230.196 -38.3946 224.131 -44.4532C216.297 -52.287 214.097 -58.0167 211.993 -63.9657H209.45C209.458 -63.9305 209.47 -63.8961 209.484 -63.8629C211.664 -57.6809 213.912 -51.2521 222.438 -42.7604ZM214.104 -34.4263C222.63 -25.9072 229.024 -23.6523 235.213 -21.4728C236.687 -20.9519 238.147 -20.4448 239.62 -19.8553V-22.4186C238.4 -22.8915 237.201 -23.3096 236.008 -23.7345C229.799 -25.914 223.939 -27.977 215.804 -36.1192C207.668 -44.2614 205.598 -50.1213 203.419 -56.3239C202.553 -58.9255 201.537 -61.4748 200.376 -63.9589H197.696C199.045 -61.2372 200.19 -58.4195 201.123 -55.5288C203.33 -49.3468 205.585 -42.9523 214.104 -34.4263ZM205.777 -26.099C214.303 -17.573 220.697 -15.325 226.879 -13.1456C230.991 -11.6857 235.008 -10.2807 239.62 -7.09376V-9.9586C235.275 -12.7343 231.437 -14.0708 227.674 -15.4073C221.472 -17.5936 215.612 -19.6566 207.469 -27.7919C199.327 -35.9272 197.271 -41.794 195.085 -47.9966C193.365 -52.8764 191.603 -57.8865 186.751 -63.9657H183.639C189.177 -57.5438 190.959 -52.4995 192.823 -47.2016C195.003 -41.0195 197.251 -34.6182 205.777 -26.099ZM184.489 -38.8743C186.669 -32.706 188.917 -26.291 197.443 -17.765C205.969 -9.23897 212.363 -6.99094 218.552 -4.81147C224.741 -2.63199 230.614 -0.562187 238.757 7.57315L239.62 8.45042V5.05785C231.505 -2.79648 225.33 -4.96911 219.347 -7.0732C213.138 -9.25953 207.278 -11.3225 199.142 -19.4647C191.007 -27.6069 188.937 -33.4599 186.751 -39.6694C184.564 -45.8788 182.323 -52.2528 173.804 -60.7719C172.618 -61.9576 171.481 -63.0131 170.377 -63.9657H166.608C168.535 -62.4526 170.367 -60.8205 172.091 -59.0791C180.267 -50.9369 182.323 -45.0838 184.489 -38.8743ZM163.77 -50.745C171.913 -42.6096 173.975 -36.7428 176.162 -30.5402C178.348 -24.3377 180.589 -17.9569 189.115 -9.43771C197.641 -0.918564 204.036 1.34315 210.218 3.51577C216.4 5.68839 222.287 7.76505 230.423 15.9072C235.104 20.5883 237.777 24.5155 239.62 28.1959V23.3572C237.463 20.0421 234.949 16.9738 232.122 14.2075C223.596 5.68155 217.202 3.43352 211.013 1.25404C204.824 -0.925434 198.95 -2.99524 190.808 -11.1306C182.666 -19.2659 180.61 -25.1327 178.424 -31.3353C176.237 -37.5379 173.989 -43.9187 165.47 -52.4447C158.719 -59.1887 153.312 -62.0056 148.281 -63.9657H141.201C141.982 -63.6779 142.764 -63.4037 143.538 -63.1296C149.775 -60.9501 155.635 -58.8803 163.77 -50.745ZM155.443 -42.4177C163.578 -34.2755 165.641 -28.4156 167.828 -22.2062C170.014 -15.9967 172.255 -9.62961 180.781 -1.10361C189.307 7.42239 195.702 9.67039 201.884 11.8499C208.066 14.0293 213.953 16.0992 222.095 24.2345C230.237 32.3698 232.294 38.2366 234.48 44.4392C235.755 48.0579 237.05 51.7521 239.62 55.8917V50.9228C238.527 48.5538 237.566 46.1261 236.742 43.651C234.562 37.4827 232.314 31.0676 223.788 22.5485C215.262 14.0293 208.868 11.7745 202.686 9.595C196.504 7.41552 190.616 5.34572 182.481 -2.79647C174.346 -10.9387 172.276 -16.7917 170.089 -23.0012C167.903 -29.2106 165.662 -35.5777 157.136 -44.1037C148.61 -52.6297 142.215 -54.8777 136.033 -57.0572C131.544 -58.6404 127.233 -60.1551 122.107 -63.9589H118.248C124.793 -58.4759 130.091 -56.6049 135.238 -54.7955C141.441 -52.6229 147.301 -50.5667 155.443 -42.4177ZM126.904 -46.4545C133.114 -44.2682 138.974 -42.2052 147.109 -34.0699C155.244 -25.9346 157.314 -20.0678 159.5 -13.8652C161.687 -7.66262 163.928 -1.28181 172.447 7.24419C180.966 15.7702 187.368 18.0182 193.556 20.1977C199.745 22.3771 205.626 24.4401 213.761 32.5823C221.897 40.7245 223.966 46.5844 226.146 52.787C228.325 58.9896 230.58 65.3704 239.099 73.8895L239.62 74.4036V70.9767C232.458 63.4377 230.484 57.8793 228.414 51.9851C226.235 45.8168 223.98 39.4017 215.461 30.8757C206.942 22.3497 200.54 20.1017 194.352 17.9222C188.163 15.7428 182.282 13.6798 174.147 5.5376C166.011 -2.60459 163.942 -8.46449 161.762 -14.6671C159.583 -20.8697 157.328 -27.2505 148.809 -35.7765C140.29 -44.3025 133.888 -46.5505 127.699 -48.7231C121.51 -50.8957 115.637 -52.9724 107.495 -61.1146C106.515 -62.0947 105.624 -63.0405 104.808 -63.9589H101.655C102.848 -62.5127 104.219 -60.9981 105.768 -59.4149C114.328 -50.8957 120.722 -48.6477 126.904 -46.4545ZM118.584 -38.141C124.752 -35.9547 130.646 -33.8917 138.789 -25.7495C146.931 -17.6073 148.987 -11.7543 151.173 -5.54482C153.36 0.664635 155.601 7.03172 164.127 15.5577C172.653 24.0837 179.047 26.3317 185.229 28.5112C191.411 30.6907 197.299 32.7605 205.434 40.8958C213.569 49.0312 215.639 54.8979 217.825 61.1074C220.012 67.3168 222.253 73.6839 230.779 82.2099C233.461 84.9518 236.427 87.4009 239.627 89.516V86.6305C237.071 84.7991 234.677 82.7515 232.472 80.5102C224.336 72.3749 222.273 66.5149 220.087 60.3055C217.901 54.096 215.66 47.729 207.134 39.203C198.608 30.677 192.213 28.4289 186.031 26.2495C179.849 24.07 173.962 22.0002 165.82 13.8649C157.677 5.72952 155.621 -0.137257 153.435 -6.34671C151.249 -12.5562 149.007 -18.9232 140.481 -27.4492C131.955 -35.9752 125.561 -38.2233 119.379 -40.4027C113.197 -42.5822 107.31 -44.652 99.1743 -52.7873C95.7659 -56.0672 92.8626 -59.8343 90.5591 -63.9657H87.8588C90.3325 -59.1779 93.5739 -54.8276 97.454 -51.0876C105.994 -42.5685 112.416 -40.2862 118.584 -38.141ZM89.113 -42.7604C97.6322 -34.2344 104.034 -31.9864 110.216 -29.8069C116.398 -27.6274 122.285 -25.5576 130.42 -17.4223C138.556 -9.28695 140.619 -3.42017 142.805 2.78242C144.991 8.98502 147.239 15.3658 155.758 23.8918C164.277 32.4178 170.679 34.6658 176.868 36.8453C183.057 39.0248 188.93 41.0946 197.072 49.2299C205.215 57.3653 207.271 63.232 209.457 69.4346C211.643 75.6372 213.885 82.018 222.411 90.544C229.155 97.2812 234.562 100.098 239.593 102.058V99.4881C234.973 97.6033 230.169 94.9167 224.11 88.8511C215.968 80.7158 213.905 74.849 211.719 68.6465C209.532 62.4439 207.291 56.0631 198.772 47.5371C190.253 39.0111 183.845 36.763 177.663 34.5836C171.481 32.4041 165.593 30.3411 157.458 22.199C149.323 14.0568 147.253 8.19685 145.073 1.99426C142.894 -4.20834 140.639 -10.5891 132.12 -19.1083C123.601 -27.6274 117.213 -29.896 111.045 -32.0618C104.877 -34.2275 98.9823 -36.3111 90.8401 -44.4464C83.0064 -52.2802 80.8064 -58.0099 78.7023 -63.9589H76.1595L76.1938 -63.8561C78.3664 -57.6809 80.6144 -51.2521 89.113 -42.7604ZM80.7789 -34.4263C89.3049 -25.9072 95.6994 -23.6523 101.881 -21.4728C108.063 -19.2933 113.951 -17.2304 122.086 -9.08818C130.221 -0.945995 132.291 4.90707 134.505 11.1165C136.719 17.326 138.933 23.6999 147.459 32.2191C155.985 40.7382 162.379 42.9999 168.561 45.1725C174.743 47.3452 180.63 49.4218 188.766 57.564C196.901 65.7062 198.971 71.5593 201.157 77.7687C203.344 83.9782 205.585 90.3452 214.111 98.8712C222.637 107.397 229.024 109.645 235.213 111.825C236.687 112.346 238.147 112.86 239.62 113.449V110.879C238.4 110.413 237.201 109.988 236.008 109.57C229.84 107.384 223.939 105.321 215.804 97.1853C207.668 89.0499 205.605 83.1831 203.419 76.9805C201.233 70.7779 198.991 64.3972 190.465 55.8712C181.939 47.3452 175.545 45.0971 169.356 42.9177C163.167 40.7382 157.294 38.6684 149.151 30.533C141.009 22.3977 138.953 16.5309 136.767 10.3283C134.58 4.12576 132.339 -2.25505 123.813 -10.781C115.287 -19.307 108.893 -21.5551 102.711 -23.7345C96.5287 -25.914 90.6414 -27.977 82.506 -36.1192C74.3707 -44.2614 72.3009 -50.1144 70.1214 -56.3239C69.2555 -58.9255 68.2394 -61.4748 67.0784 -63.9589H64.3985C65.7483 -61.2354 66.8937 -58.4153 67.8254 -55.522C70.0323 -49.3468 72.2872 -42.9523 80.8063 -34.4263H80.7789ZM72.4516 -26.099C80.9708 -17.573 87.3653 -15.325 93.5542 -13.1456C99.7431 -10.9661 105.617 -8.89627 113.759 -0.760925C121.901 7.37441 123.957 13.2412 126.144 19.4506C128.33 25.6601 130.571 32.0272 139.097 40.5532C147.623 49.0792 154.018 51.3272 160.206 53.5066C166.395 55.6861 172.269 57.7559 180.411 65.8913C188.553 74.0266 190.609 79.8934 192.796 86.096C194.982 92.2986 197.223 98.6794 205.749 107.205C214.275 115.731 220.704 117.979 226.872 120.159C230.985 121.612 235.001 123.017 239.613 126.211V123.339C235.268 120.597 231.43 119.227 227.674 117.856C221.465 115.677 215.605 113.614 207.463 105.471C199.32 97.3292 197.264 91.4761 195.078 85.2667C192.892 79.0572 190.651 72.6833 182.125 64.1642C173.599 55.645 167.204 53.3833 161.022 51.2106C154.84 49.038 148.953 46.9614 140.817 38.8192C132.682 30.677 130.612 24.8239 128.426 18.6145C126.239 12.405 123.998 6.03793 115.472 -2.48807C106.946 -11.0141 100.552 -13.2621 94.3698 -15.4416C88.1878 -17.621 82.3073 -19.6909 74.1651 -27.8262C66.0229 -35.9615 63.9668 -41.8283 61.7805 -48.0309C60.0602 -52.9107 58.2988 -57.9208 53.4464 -64H50.3348C55.8726 -57.5781 57.6545 -52.5338 59.5187 -47.2359C61.6982 -41.0127 63.9531 -34.6182 72.4791 -26.099H72.4516ZM51.1641 -38.8675C53.3436 -32.6992 55.5916 -26.291 64.1176 -17.765C72.6436 -9.23897 79.038 -6.99094 85.2201 -4.81147C91.4021 -2.63199 97.2895 -0.562187 105.425 7.57315C113.56 15.7085 115.63 21.5753 117.809 27.7779C119.989 33.9805 122.244 40.3612 130.77 48.8804C139.296 57.3995 145.69 59.6613 151.872 61.8339C158.054 64.0065 163.942 66.0832 172.077 74.2254C180.212 82.3676 182.282 88.2206 184.462 94.4301C186.641 100.64 188.896 107.013 197.415 115.533C205.934 124.052 212.336 126.313 218.524 128.486C224.713 130.659 230.587 132.735 238.729 140.878C239.024 141.172 239.312 141.46 239.593 141.755V138.328C231.505 130.508 225.33 128.315 219.333 126.259C213.165 124.072 207.264 122.009 199.129 113.874C190.993 105.739 188.923 99.8719 186.744 93.6693C184.564 87.4667 182.31 81.0859 173.79 72.5599C165.271 64.0339 158.87 61.7859 152.681 59.6064C146.492 57.4269 140.619 55.3571 132.476 47.2218C124.334 39.0864 122.278 33.2197 120.092 27.0171C117.905 20.8145 115.657 14.4337 107.138 5.90771C98.6191 -2.61829 92.2177 -4.86629 86.0288 -7.03892C79.84 -9.21154 73.9664 -11.2882 65.831 -19.4304C57.6957 -27.5726 55.6396 -33.4325 53.4738 -39.6694C51.308 -45.9062 49.0463 -52.2459 40.5271 -60.7719C39.3414 -61.9508 38.2037 -63.0062 37.1003 -63.9657H33.3239C35.2531 -62.452 37.0844 -60.8176 38.8069 -59.0722C46.9422 -50.9369 49.0121 -45.0838 51.1915 -38.8675H51.1641ZM30.4454 -50.745C38.5876 -42.6028 40.6505 -36.7428 42.8368 -30.5402C45.0232 -24.3377 47.2643 -17.9569 55.7835 -9.43087C64.3026 -0.904873 70.704 1.34315 76.8929 3.51577C83.0818 5.68839 88.9554 7.76505 97.0976 15.9072C105.24 24.0494 107.296 29.9025 109.482 36.112C111.669 42.3214 113.91 48.6885 122.436 57.2145C130.962 65.7405 137.356 67.9885 143.538 70.168C149.72 72.3474 155.608 74.4173 163.75 82.5526C171.892 90.6879 173.948 96.5547 176.134 102.757C178.321 108.96 180.562 115.341 189.088 123.867C197.614 132.393 204.008 134.641 210.19 136.82C216.372 139 222.26 141.069 230.395 149.205C235.076 153.886 237.749 157.813 239.593 161.493V156.655C237.443 153.342 234.938 150.274 232.122 147.505C223.596 138.979 217.202 136.724 211.013 134.552C204.824 132.379 198.95 130.302 190.808 122.16C182.666 114.018 180.61 108.165 178.424 101.955C176.237 95.746 173.996 89.372 165.47 80.8529C156.944 72.3337 150.55 70.0789 144.368 67.8994C138.185 65.7199 132.298 63.6501 124.163 55.5079C116.027 47.3657 113.958 41.5127 111.771 35.3032C109.585 29.0938 107.344 22.7267 98.8179 14.2007C90.2919 5.67468 83.8973 3.42667 77.7153 1.2472C71.5333 -0.932274 65.646 -3.00209 57.5106 -11.1374C49.3753 -19.2728 47.3123 -25.1395 45.1259 -31.3421C42.9396 -37.5447 40.6985 -43.9255 32.1725 -52.4447C25.4216 -59.1955 20.0071 -62.0398 14.9697 -63.9726H7.92414C8.71232 -63.6847 9.49359 -63.4106 10.2749 -63.1364C16.4638 -60.9432 22.3374 -58.8803 30.4727 -50.745H30.4454ZM22.1181 -42.4109C30.2535 -34.2755 32.3164 -28.4156 34.5027 -22.2062C36.689 -15.9967 38.9302 -9.62961 47.4562 -1.10361C55.9822 7.42239 62.3767 9.67039 68.5588 11.8499C74.7408 14.0293 80.6281 16.0992 88.7635 24.2345C96.8988 32.3698 98.9687 38.2366 101.148 44.4392C103.328 50.6418 105.582 57.0226 114.102 65.5486C122.621 74.0746 129.022 76.3226 135.211 78.5021C141.4 80.6815 147.273 82.7514 155.416 90.8867C163.558 99.022 165.621 104.889 167.8 111.091C169.98 117.294 172.228 123.675 180.754 132.194C189.28 140.713 195.674 142.975 201.863 145.154C208.052 147.334 213.926 149.397 222.068 157.539C230.21 165.681 232.266 171.541 234.453 177.744C235.721 181.746 237.446 185.588 239.593 189.196V184.22C238.501 181.853 237.54 179.428 236.714 176.955C234.542 170.787 232.287 164.372 223.761 155.846C215.235 147.32 208.84 145.072 202.658 142.893C196.476 140.713 190.589 138.643 182.453 130.508C174.318 122.373 172.248 116.506 170.062 110.303C167.876 104.101 165.635 97.7198 157.115 89.1938C148.596 80.6678 142.195 78.4198 136.006 76.2404C129.817 74.0609 123.937 71.9979 115.801 63.8557C107.666 55.7135 105.596 49.8536 103.417 43.651C101.237 37.4484 98.9823 31.0676 90.4632 22.5485C81.944 14.0293 75.5427 11.7676 69.3538 9.595C63.1649 7.42238 57.2913 5.3457 49.1491 -2.78963C41.0069 -10.925 38.9508 -16.7917 36.7645 -22.9943C34.5781 -29.1969 32.337 -35.5777 23.8178 -44.1037C15.2987 -52.6297 8.92476 -54.8846 2.75643 -57.0572C-1.73274 -58.6404 -6.04368 -60.1619 -11.1702 -63.9657H-15.0632C-8.5179 -58.4828 -3.21997 -56.6117 1.92716 -54.7955C8.14346 -52.6229 14.0102 -50.5668 22.1456 -42.4109H22.1181ZM-6.38638 -46.4545C-0.218048 -44.2682 5.67611 -42.2052 13.8114 -34.0699C21.9468 -25.9346 24.0166 -20.0678 26.196 -13.8652C28.3755 -7.66262 30.6304 -1.28181 39.1495 7.24419C47.6687 15.7702 54.0701 18.0182 60.259 20.1908C66.4478 22.3634 72.3215 24.4401 80.4637 32.5823C88.6058 40.7245 90.6619 46.5775 92.8482 52.787C95.0346 58.9964 97.2757 65.3635 105.802 73.8895C114.328 82.4155 120.722 84.6635 126.904 86.843C133.086 89.0225 138.974 91.0923 147.109 99.2345C155.244 107.377 157.314 113.237 159.5 119.405C161.687 125.573 163.928 131.981 172.454 140.507C180.98 149.033 187.374 151.281 193.556 153.461C199.739 155.64 205.626 157.71 213.761 165.846C221.897 173.981 223.966 179.848 226.153 186.057C228.339 192.267 230.58 198.634 239.106 207.16L239.62 207.667V204.24C232.458 196.701 230.491 191.143 228.414 185.248C226.235 179.08 223.987 172.672 215.461 164.146C206.935 155.62 200.54 153.372 194.352 151.192C188.163 149.013 182.289 146.943 174.147 138.801C166.005 130.659 163.949 124.806 161.762 118.596C159.576 112.387 157.335 106.02 148.809 97.4937C140.283 88.9677 133.888 86.7197 127.706 84.5402C121.524 82.3607 115.637 80.2909 107.495 72.1555C99.3524 64.0202 97.2963 58.1534 95.11 51.9508C92.9237 45.7482 90.6825 39.3675 82.1565 30.8415C73.6305 22.3155 67.2361 20.0675 61.054 17.888C54.872 15.7085 48.9846 13.6387 40.8492 5.50334C32.7139 -2.632 30.6441 -8.49877 28.4647 -14.7014C26.2852 -20.904 24.0371 -27.2779 15.5111 -35.8039C6.98515 -44.3299 0.590622 -46.5779 -5.59141 -48.7574C-11.7734 -50.9368 -17.6608 -53.0067 -25.7961 -61.142C-26.783 -62.1221 -27.674 -63.0747 -28.4895 -63.9931H-31.6422C-30.4497 -62.5402 -29.0789 -61.0324 -27.53 -59.4423C-18.9697 -50.8957 -12.5753 -48.6409 -6.38638 -46.4545ZM-14.7205 -38.1204C-8.55217 -35.9341 -2.658 -33.8711 5.48418 -25.7358C13.6264 -17.6005 15.6825 -11.7337 17.8689 -5.53112C20.0552 0.671478 22.2963 7.05228 30.8223 15.5714C39.3483 24.0906 45.736 26.3454 51.9249 28.5249C58.1137 30.7044 63.9873 32.7742 72.1295 40.9095C80.2717 49.0449 82.3279 54.9117 84.5142 61.1142C86.7005 67.3168 88.9485 73.6976 97.4676 82.2236C105.987 90.7496 112.388 92.9977 118.577 95.1771C124.766 97.3566 130.64 99.4264 138.782 107.562C146.924 115.697 148.98 121.564 151.166 127.766C153.353 133.969 155.594 140.35 164.12 148.869C172.646 157.388 179.04 159.65 185.222 161.829C191.404 164.009 197.292 166.072 205.434 174.214C213.576 182.356 215.632 188.216 217.819 194.419C220.005 200.621 222.246 207.002 230.772 215.528C233.456 218.266 236.422 220.713 239.62 222.827V219.942C237.065 218.114 234.673 216.069 232.472 213.828C224.33 205.686 222.267 199.826 220.08 193.624C217.894 187.421 215.653 181.04 207.127 172.521C198.601 164.002 192.206 161.74 186.024 159.561C179.842 157.381 173.955 155.318 165.82 147.176C157.684 139.034 155.594 133.16 153.428 126.944C151.262 120.728 149.001 114.361 140.475 105.841C131.949 97.3223 125.554 95.0606 119.372 92.888C113.19 90.7153 107.303 88.6387 99.1674 80.4965C91.0321 72.3543 88.9622 66.5012 86.7827 60.2918C84.6033 54.0823 82.3484 47.7084 73.8292 39.1893C65.3101 30.6701 58.9088 28.4084 52.7199 26.2358C46.531 24.0631 40.6574 21.9865 32.5152 13.8511C24.373 5.7158 22.3169 -0.150951 20.1305 -6.35355C17.9442 -12.5561 15.703 -18.9369 7.17703 -27.4629C-1.34897 -35.9889 -7.73656 -38.2369 -13.9254 -40.4096C-20.1143 -42.5822 -25.9879 -44.6589 -34.1301 -52.7942C-37.5373 -56.0777 -40.4405 -59.8469 -42.7453 -63.9794H-45.4456C-42.9752 -59.1895 -39.7335 -54.8387 -35.8504 -51.1013C-27.3039 -42.5616 -20.9094 -40.2862 -14.7205 -38.1341V-38.1204ZM-44.1914 -42.7398C-35.6654 -34.2207 -29.2709 -31.9658 -23.0888 -29.7863C-16.9068 -27.6069 -11.0195 -25.5439 -2.88415 -17.4017C5.25119 -9.25951 7.32097 -3.40647 9.50044 2.80299C11.6799 9.01244 13.9279 15.3795 22.4539 23.9055C30.9799 32.4315 37.3745 34.6795 43.5565 36.859C49.7385 39.0385 55.6259 41.1014 63.7612 49.2436C71.8965 57.3858 74.0349 63.2046 76.187 69.4346C78.339 75.6647 80.6145 82.018 89.1405 90.5372C97.6664 99.0563 104.061 101.318 110.243 103.491C116.425 105.663 122.312 107.74 130.448 115.882C138.583 124.024 140.653 129.877 142.839 136.087C145.025 142.296 147.267 148.67 155.786 157.189C164.305 165.709 170.706 167.963 176.895 170.143C183.084 172.322 188.965 174.392 197.1 182.534C205.235 190.677 207.305 196.53 209.484 202.739C211.664 208.948 213.919 215.316 222.438 223.842C229.182 230.586 234.59 233.437 239.62 235.363V232.786C235.001 230.908 230.203 228.214 224.138 222.156C215.996 214.013 213.932 208.153 211.753 201.944C209.574 195.735 207.319 189.367 198.8 180.841C190.28 172.315 183.879 170.067 177.69 167.888C171.501 165.708 165.621 163.639 157.485 155.503C149.35 147.368 147.28 141.501 145.101 135.299C142.921 129.096 140.673 122.715 132.147 114.189C123.621 105.663 117.227 103.415 111.038 101.236C104.849 99.0563 98.9755 96.9865 90.8333 88.8511C82.6911 80.7158 80.6349 74.849 78.4486 68.6465C76.2623 62.4439 74.0212 56.0631 65.4952 47.5371C56.9692 39.0111 50.5747 36.763 44.3926 34.5836C38.2106 32.4041 32.3233 30.3411 24.188 22.199C16.0526 14.0568 13.9827 8.2037 11.8033 1.99426C9.6238 -4.2152 7.369 -10.5823 -1.15015 -19.1083C-9.66929 -27.6343 -16.0707 -29.8823 -22.2596 -32.0618C-28.4484 -34.2412 -34.322 -36.3042 -42.4574 -44.4464C-50.298 -52.2802 -52.498 -58.003 -54.6021 -63.9589H-57.1449L-57.1106 -63.8492C-54.9311 -57.674 -52.6831 -51.2521 -44.1571 -42.7535L-44.1914 -42.7398ZM-52.5187 -34.4126C-43.9995 -25.8866 -37.605 -23.6386 -31.4161 -21.4591C-25.2272 -19.2796 -19.3536 -17.2098 -11.2114 -9.07446C-3.06921 -0.939125 -0.978844 4.9482 1.20749 11.1165C3.39381 17.2848 5.63499 23.6999 14.161 32.2191C22.687 40.7382 29.0747 42.9999 35.2635 45.1725C41.4524 47.3452 47.326 49.4218 55.4682 57.5572C63.6104 65.6925 65.6665 71.5593 67.8528 77.7687C70.0392 83.9782 72.2803 90.3452 80.8063 98.8712C89.3323 107.397 95.7269 109.645 101.909 111.825C108.091 114.004 113.978 116.074 122.12 124.209C130.263 132.345 132.319 138.211 134.505 144.414C136.691 150.617 138.933 156.997 147.459 165.523C155.985 174.049 162.379 176.297 168.561 178.477C174.743 180.656 180.63 182.726 188.766 190.862C196.901 198.997 198.971 204.864 201.157 211.066C203.344 217.269 205.585 223.65 214.111 232.176C215.536 233.601 216.907 234.849 218.223 235.959H222.075C219.852 234.288 217.756 232.456 215.804 230.476C207.661 222.341 205.598 216.474 203.412 210.271C201.226 204.069 198.985 197.688 190.459 189.169C181.933 180.65 175.538 178.388 169.356 176.208C163.174 174.029 157.287 171.966 149.145 163.824C141.002 155.682 138.946 149.829 136.76 143.619C134.574 137.41 132.332 131.036 123.806 122.516C115.28 113.997 108.886 111.736 102.704 109.563C96.5218 107.39 90.6345 105.314 82.4992 97.1715C74.3638 89.0293 72.2941 83.1763 70.1077 76.9668C67.9214 70.7574 65.6802 64.3903 57.1542 55.8643C48.6282 47.3383 42.2337 45.0903 36.0517 42.9108C29.8696 40.7314 23.9823 38.6615 15.847 30.5262C7.71164 22.3909 5.64871 16.5241 3.46238 10.3215C1.27605 4.1189 -0.965126 -2.26191 -9.49112 -10.781C-18.0171 -19.3002 -24.4116 -21.5551 -30.5937 -23.7345C-36.7757 -25.914 -42.663 -27.9838 -50.7984 -36.1192C-58.9337 -44.2545 -60.9829 -50.1213 -63.1761 -56.3239C-64.0408 -58.9282 -65.0569 -61.4798 -66.2192 -63.9657H-68.899C-67.5535 -61.2403 -66.4082 -58.4205 -65.4722 -55.5288C-63.2653 -49.3399 -60.9829 -42.9454 -52.4843 -34.4263L-52.5187 -34.4126ZM-60.8528 -26.0785C-52.3268 -17.5525 -45.9322 -15.3045 -39.7502 -13.125C-33.5682 -10.9455 -27.6809 -8.88256 -19.5455 -0.740368C-11.4102 7.40182 -9.34032 13.2549 -7.16085 19.4643C-4.98138 25.6738 -2.73335 32.0409 5.79266 40.5669C14.3186 49.0929 20.7131 51.3409 26.8951 53.5203C33.0772 55.6998 38.9645 57.7696 47.0998 65.905C55.2352 74.0403 57.305 79.9071 59.4845 86.1097C61.664 92.3123 63.9189 98.693 72.4449 107.219C80.9709 115.745 87.3584 117.993 93.5473 120.166C99.7362 122.338 105.617 124.415 113.752 132.557C121.887 140.699 123.957 146.552 126.137 152.762C128.316 158.971 130.571 165.345 139.09 173.864C147.609 182.384 154.011 184.645 160.2 186.818C166.388 188.99 172.262 191.067 180.404 199.209C188.546 207.352 190.609 213.205 192.789 219.414C194.564 224.452 196.387 229.626 201.603 235.973H204.749C198.806 229.263 196.976 224.075 195.051 218.619C192.878 212.451 190.623 206.036 182.104 197.51C173.585 188.984 167.183 186.736 160.995 184.556C154.806 182.377 148.925 180.307 140.79 172.172C132.655 164.036 130.585 158.169 128.405 151.967C126.226 145.764 123.971 139.383 115.452 130.857C106.933 122.331 100.531 120.083 94.3424 117.904C88.1535 115.724 82.2799 113.655 74.1377 105.519C65.9955 97.384 63.9393 91.5172 61.753 85.3147C59.5667 79.112 57.3187 72.7313 48.7996 64.2053C40.2805 55.6793 33.8791 53.4313 27.6902 51.2586C21.5013 49.086 15.6277 47.0093 7.49236 38.8671C-0.642982 30.7249 -2.71285 24.8719 -4.89918 18.6624C-7.08551 12.453 -9.32668 6.08591 -17.8458 -2.44009C-26.365 -10.9661 -32.7663 -13.2141 -38.9552 -15.3867C-45.144 -17.5594 -51.0177 -19.636 -59.1598 -27.7782C-67.302 -35.9204 -69.3582 -41.7735 -71.5445 -47.9829C-73.2579 -52.8559 -75.0261 -57.8728 -79.8786 -63.952H-82.9902C-77.4524 -57.5301 -75.6704 -52.4789 -73.8062 -47.181C-71.5924 -41.0127 -69.3445 -34.6182 -60.8185 -26.0922L-60.8528 -26.0785ZM-82.0992 -38.8538C-79.9266 -32.6855 -77.6717 -26.2704 -69.1526 -17.7444C-60.6334 -9.21839 -54.2321 -6.97039 -48.05 -4.79776C-41.868 -2.62514 -35.9807 -0.548466 -27.8453 7.58687C-19.71 15.7222 -17.6401 21.589 -15.4538 27.7916C-13.2675 33.9941 -11.0264 40.375 -2.50725 48.901C6.0119 57.4269 12.4133 59.675 18.6022 61.8476C24.7911 64.0202 30.6647 66.0969 38.8069 74.239C46.9491 82.3812 49.0052 88.2343 51.1915 94.4438C53.3779 100.653 55.619 107.02 64.145 115.546C72.671 124.072 79.0655 126.32 85.2475 128.5C91.4296 130.679 97.3169 132.749 105.452 140.884C113.588 149.02 115.657 154.887 117.844 161.096C120.03 167.305 122.271 173.673 130.797 182.198C139.323 190.724 145.718 192.973 151.9 195.152C158.082 197.331 163.969 199.401 172.104 207.537C180.24 215.672 182.323 221.525 184.496 227.728C185.421 230.541 186.533 233.288 187.827 235.952H190.548C189.046 233.052 187.785 230.033 186.778 226.926C184.599 220.757 182.351 214.349 173.825 205.823C165.299 197.297 158.904 195.042 152.715 192.87C146.526 190.697 140.653 188.62 132.511 180.478C124.368 172.336 122.312 166.483 120.126 160.274C117.94 154.064 115.698 147.697 107.172 139.171C98.6465 130.645 92.252 128.397 86.07 126.217C79.888 124.038 74.0006 121.968 65.8652 113.833C57.7299 105.698 55.6601 99.8308 53.4738 93.6213C51.2875 87.4119 49.0463 81.0448 40.5203 72.5188C31.9943 63.9928 25.5998 61.7448 19.4178 59.5653C13.2358 57.3858 7.34837 55.316 -0.786964 47.1807C-8.9223 39.0453 -10.9852 33.1786 -13.1716 26.976C-15.3579 20.7734 -17.5991 14.3926 -26.1251 5.87344C-34.6511 -2.6457 -41.0456 -4.90056 -47.2276 -7.08004C-53.4097 -9.25951 -59.297 -11.3293 -67.4323 -19.4647C-75.5676 -27.6 -77.6374 -33.4668 -79.8169 -39.6694C-81.9964 -45.872 -84.2444 -52.2528 -92.7704 -60.7719C-93.2022 -61.2037 -93.6271 -61.6149 -94.0452 -62.0124V-58.6473C-86.2799 -50.7244 -84.2444 -44.9604 -82.0992 -38.8675V-38.8538ZM165.47 214.171C156.951 205.652 150.55 203.397 144.368 201.217C138.185 199.038 132.298 196.968 124.163 188.833C116.027 180.698 113.958 174.831 111.771 168.628C109.585 162.426 107.344 156.045 98.8247 147.519C90.3056 138.993 83.8973 136.745 77.7153 134.565C71.5333 132.386 65.646 130.323 57.5106 122.181C49.3753 114.038 47.3054 108.179 45.1259 101.976C42.9465 95.7734 40.6917 89.3926 32.1725 80.8735C23.6534 72.3543 17.252 70.0926 11.0631 67.92C4.87422 65.7473 -0.99939 63.6707 -9.14158 55.5353C-17.2838 47.4 -19.3399 41.5332 -21.5263 35.3306C-23.7126 29.128 -25.9537 22.7472 -34.4797 14.2212C-43.0057 5.69524 -49.3933 3.44724 -55.5822 1.27462C-61.7711 -0.897999 -67.6447 -2.97467 -75.7869 -11.11C-83.9291 -19.2453 -85.9853 -25.1121 -88.1716 -31.3147C-89.5423 -35.2762 -90.9884 -39.313 -94.0658 -43.9461V-39.2924C-92.6257 -36.4684 -91.411 -33.5351 -90.4333 -30.5197C-88.2538 -24.3514 -86.0058 -17.9431 -77.4798 -9.41715C-68.9538 -0.891151 -62.5593 1.35686 -56.3773 3.53633C-50.1953 5.71581 -44.3148 7.78563 -36.1726 15.921C-28.0304 24.0563 -25.9743 29.9162 -23.7879 36.1257C-21.6016 42.3351 -19.3604 48.7022 -10.8344 57.2282C-2.30843 65.7542 4.08602 68.0022 10.2681 70.1817C16.4501 72.3611 22.3374 74.431 30.4727 82.5663C38.6081 90.7016 40.6779 96.5684 42.8574 102.771C45.0369 108.974 47.2918 115.354 55.8109 123.88C64.3301 132.406 70.7314 134.654 76.9203 136.834C83.1091 139.013 88.9827 141.083 97.1249 149.219C105.267 157.354 107.323 163.221 109.51 169.423C111.696 175.626 113.937 182.007 122.463 190.526C130.989 199.045 137.384 201.307 143.572 203.486C149.761 205.666 155.635 207.729 163.777 215.871C171.919 224.013 173.955 229.804 176.114 235.973H178.657L178.41 235.287C176.251 229.064 173.996 222.683 165.47 214.157V214.171ZM135.999 209.552C129.831 207.365 123.937 205.302 115.794 197.16C107.652 189.018 105.63 183.144 103.444 176.976C101.258 170.808 99.0166 164.399 90.4906 155.873C81.9646 147.347 75.5701 145.099 69.3812 142.92C63.1923 140.74 57.3187 138.671 49.1765 130.535C41.0343 122.4 38.9782 116.533 36.7919 110.331C34.6056 104.128 32.3644 97.7473 23.8384 89.2213C15.3124 80.6953 8.92476 78.413 2.75643 76.2266C-3.4119 74.0403 -9.31292 71.9842 -17.4483 63.842C-25.5836 55.6998 -27.6535 49.8468 -29.8329 43.6373C-32.0124 37.4279 -34.2604 31.0608 -42.7864 22.5348C-51.3124 14.0088 -57.7069 11.7608 -63.8889 9.5813C-70.0709 7.40182 -75.9583 5.332 -84.0936 -2.80334C-89.46 -8.16293 -92.181 -12.5424 -94.0452 -16.6752V-11.5007C-91.7541 -7.7076 -88.9905 -4.22086 -85.8207 -1.12417C-77.2947 7.39497 -70.9002 9.64983 -64.7182 11.8224C-58.5361 13.9951 -52.6488 16.0717 -44.5135 24.2071C-36.3782 32.3424 -34.3084 38.2092 -32.1289 44.4118C-29.9494 50.6144 -27.6945 56.9952 -19.1754 65.5212C-10.6563 74.0472 -4.25488 76.2952 1.92716 78.4678C8.10919 80.6404 13.9965 82.7171 22.1387 90.8593C30.2809 99.0014 32.337 104.855 34.5233 111.064C36.7096 117.273 38.9508 123.641 47.4768 132.167C56.0028 140.693 62.3973 142.941 68.5794 145.12C74.7614 147.299 80.6487 149.369 88.784 157.511C96.9194 165.654 98.9892 171.507 101.175 177.716C103.362 183.926 105.603 190.293 114.129 198.819C122.655 207.345 129.05 209.593 135.232 211.772C141.414 213.952 147.301 216.022 155.436 224.157C159.007 227.588 162.014 231.562 164.346 235.931H167.026C165.086 231.929 162.228 227.584 157.115 222.464C148.617 213.986 142.222 211.717 136.033 209.538L135.999 209.552ZM127.672 217.886C121.462 215.699 115.603 213.636 107.467 205.494C99.3319 197.352 97.262 191.492 95.0757 185.29C92.8894 179.087 90.6483 172.706 82.1223 164.187C73.5963 155.668 67.2018 153.406 61.0197 151.233C54.8377 149.061 48.9504 146.984 40.815 138.842C32.6797 130.7 30.6098 124.847 28.4235 118.637C26.2372 112.428 23.9961 106.054 15.4769 97.5348C6.95779 89.0157 0.556396 86.7539 -5.63249 84.5813C-11.8214 82.4087 -17.695 80.332 -25.8372 72.1967C-33.9794 64.0613 -36.0355 58.1946 -38.2219 51.992C-40.4082 45.7894 -42.6493 39.4086 -51.1753 30.8826C-59.7013 22.3566 -66.0889 20.1086 -72.2778 17.936C-78.4667 15.7633 -84.3403 13.6867 -92.4825 5.55132C-93.0514 4.98247 -93.5859 4.42046 -94.1 3.87902V7.30587C-85.6151 15.7633 -79.2412 18.0045 -73.0729 20.1771C-66.9046 22.3497 -61.0104 24.4264 -52.8682 32.5617C-44.726 40.6971 -42.6698 46.5638 -40.4835 52.7664C-38.2972 58.969 -36.056 65.3498 -27.53 73.869C-19.004 82.3881 -12.6164 84.643 -6.42754 86.8225C-0.238655 89.0019 5.63495 91.0718 13.7771 99.2071C21.9193 107.342 24.0029 113.237 26.196 119.405C28.3892 125.573 30.6304 131.988 39.1495 140.514C47.6687 149.04 54.0701 151.288 60.259 153.468C66.4478 155.647 72.3215 157.717 80.4637 165.852C88.6058 173.988 90.6619 179.855 92.8482 186.057C95.0346 192.26 97.2757 198.641 105.802 207.16C114.328 215.679 120.722 217.941 126.904 220.12C133.086 222.299 138.974 224.369 147.116 232.505C148.308 233.697 149.364 234.842 150.317 235.931H153.428C151.989 234.132 150.447 232.418 148.809 230.798C140.283 222.299 133.888 220.045 127.706 217.872L127.672 217.886ZM99.1331 213.828C90.9909 205.686 88.928 199.826 86.7485 193.624C84.569 187.421 82.3142 181.04 73.795 172.514C65.2759 163.988 58.8745 161.74 52.6856 159.561C46.4967 157.381 40.6231 155.311 32.4809 147.176C24.3387 139.041 22.2826 133.174 20.0963 126.971C17.91 120.769 15.6688 114.388 7.14281 105.862C-1.38319 97.336 -7.77771 95.088 -13.9597 92.9086C-20.1418 90.7291 -26.0291 88.6661 -34.1644 80.5239C-42.2998 72.3817 -44.3695 66.5287 -46.549 60.3192C-48.7285 54.1098 -50.9834 47.7427 -59.5025 39.2167C-68.0217 30.6907 -74.4231 28.4427 -80.6119 26.2632C-84.9709 24.728 -89.1653 23.2476 -94.1 19.6836V22.5896C-89.4395 25.6943 -85.3821 27.1268 -81.407 28.5318C-75.1975 30.7112 -69.3376 32.7742 -61.2022 40.9164C-53.0669 49.0586 -51.004 54.9116 -48.8176 61.1211C-46.6313 67.3305 -44.3901 73.6976 -35.8641 82.2236C-27.3381 90.7496 -20.9437 92.9977 -14.7617 95.1771C-8.57963 97.3566 -2.69223 99.4195 5.44311 107.562C13.5784 115.704 15.6482 121.564 17.8346 127.766C20.0209 133.969 22.2621 140.35 30.7881 148.869C39.3141 157.388 45.7085 159.65 51.8905 161.822C58.0726 163.995 63.96 166.072 72.0953 174.214C80.2307 182.356 82.3004 188.209 84.4868 194.419C86.6731 200.628 88.9143 207.002 97.4334 215.521C105.953 224.04 112.354 226.295 118.543 228.475C123.258 230.14 127.775 231.73 133.244 235.973H137.089C130.235 230.024 124.752 228.091 119.406 226.213C113.169 224.013 107.303 221.95 99.1674 213.815L99.1331 213.828ZM90.799 222.156C82.6637 214.02 80.6007 208.16 78.4144 201.951C76.2281 195.741 73.9869 189.367 65.4609 180.848C56.9349 172.329 50.5404 170.074 44.3583 167.895C38.1763 165.715 32.289 163.646 24.1536 155.503C16.0183 147.361 13.9485 141.508 11.7622 135.299C9.57587 129.089 7.33469 122.722 -1.19131 114.196C-9.71731 105.67 -16.1118 103.422 -22.2939 101.243C-28.4759 99.0632 -34.3632 96.9933 -42.4986 88.858C-50.6339 80.7227 -52.6626 74.8559 -54.8146 68.6396C-56.9667 62.4233 -59.2421 56.0562 -67.7681 47.5371C-76.2941 39.0179 -82.6886 36.763 -88.8706 34.5836C-90.5977 33.9736 -92.2975 33.3773 -94.0315 32.6508V35.2415C-92.5511 35.831 -91.1049 36.3381 -89.6657 36.8453C-83.4631 39.0316 -77.6032 41.0946 -69.461 49.2299C-61.3188 57.3653 -59.2627 63.232 -57.0764 69.4346C-54.89 75.6372 -52.6489 82.018 -44.1229 90.5372C-35.5969 99.0563 -29.2092 101.318 -23.0203 103.491C-16.8314 105.663 -10.9578 107.74 -2.81563 115.875C5.32656 124.011 7.38264 129.877 9.56896 136.087C11.7553 142.296 13.9965 148.663 22.5225 157.189C31.0485 165.715 37.443 167.963 43.625 170.143C49.8071 172.322 55.6944 174.392 63.8366 182.527C71.9788 190.663 74.0348 196.53 76.2212 202.732C78.4075 208.935 80.6487 215.316 89.1747 223.842C96.6246 231.292 102.457 233.951 107.933 235.959H114.986C113.663 235.438 112.368 234.986 111.079 234.526C104.835 232.347 98.9755 230.284 90.8333 222.142L90.799 222.156ZM70.0871 210.285C67.9077 204.117 65.6528 197.702 57.1336 189.176C48.6145 180.65 42.2132 178.402 36.0243 176.222C29.8354 174.043 23.955 171.973 15.8196 163.837C7.68428 155.702 5.62127 149.835 3.43494 143.633C1.24861 137.43 -0.99942 131.049 -9.51856 122.523C-18.0377 113.997 -24.439 111.749 -30.6279 109.577C-36.8168 107.404 -42.6904 105.327 -50.8326 97.1853C-58.9748 89.0431 -61.0309 83.19 -63.2173 76.9874C-65.4036 70.7848 -67.6448 64.404 -76.1639 55.878C-83.2438 48.7981 -88.8569 46.0498 -94.1 44.0759V46.6392C-89.2476 48.5377 -84.2581 51.1832 -77.8636 57.6051C-69.7283 65.7405 -67.6653 71.6004 -65.479 77.8098C-63.2927 84.0193 -61.0515 90.3864 -52.5255 98.9124C-43.9995 107.438 -37.605 109.686 -31.423 111.866C-25.2409 114.045 -19.3536 116.115 -11.2183 124.251C-3.08293 132.386 -1.01307 138.253 1.16641 144.455C3.34589 150.658 5.60069 157.039 14.1267 165.558C22.6527 174.077 29.0404 176.339 35.2292 178.511C41.4181 180.684 47.2986 182.76 55.4339 190.903C63.5693 199.045 65.6391 204.905 67.8186 211.107C69.9981 217.31 72.2529 223.691 80.772 232.21C82.2045 233.642 83.5752 234.89 84.8842 236H88.7429C86.5178 234.33 84.4195 232.497 82.465 230.517C74.3639 222.334 72.3009 216.474 70.1214 210.271L70.0871 210.285ZM48.7996 197.51C40.2736 188.984 33.8791 186.736 27.697 184.556C21.515 182.377 15.6277 180.307 7.4855 172.172C-0.656693 164.036 -2.71285 158.169 -4.89918 151.96C-7.08551 145.751 -9.3266 139.383 -17.8526 130.857C-26.3786 122.331 -32.7731 120.083 -38.9552 117.904C-45.1372 115.724 -51.0245 113.655 -59.1598 105.519C-67.2952 97.384 -69.365 91.5172 -71.5445 85.3147C-73.724 79.112 -75.972 72.7312 -84.498 64.2121C-87.3843 61.2542 -90.6043 58.6415 -94.0932 56.4263V59.2774C-91.2502 61.2248 -88.6035 63.4445 -86.1909 65.905C-78.0487 74.0472 -75.9857 79.9071 -73.7993 86.1097C-71.613 92.3123 -69.3719 98.693 -60.8528 107.219C-52.3336 115.745 -45.9322 117.993 -39.7434 120.166C-33.5545 122.338 -27.6809 124.415 -19.5387 132.557C-11.3965 140.699 -9.34032 146.552 -7.15399 152.762C-4.96766 158.971 -2.72657 165.338 5.79943 173.864C14.3254 182.39 20.72 184.638 26.902 186.818C33.084 188.997 38.9713 191.067 47.1067 199.203C55.242 207.338 57.3119 213.205 59.4982 219.414C61.2665 224.445 63.0895 229.619 68.3052 235.973H71.4579C65.5089 229.263 63.6789 224.068 61.7599 218.612C59.6421 212.416 57.3598 206.022 48.8338 197.496L48.7996 197.51ZM40.4723 205.837C31.9463 197.318 25.545 195.063 19.3629 192.883C13.1809 190.704 7.29358 188.641 -0.841759 180.499C-8.9771 172.357 -11.0469 166.504 -13.2332 160.294C-15.4195 154.085 -17.6607 147.711 -26.1799 139.192C-34.699 130.672 -41.1004 128.411 -47.2893 126.238C-53.4782 124.065 -59.3518 121.989 -67.494 113.853C-75.6362 105.718 -77.6922 99.8513 -79.8786 93.6487C-82.0649 87.4461 -84.3061 81.0653 -92.8321 72.5394C-93.257 72.1144 -93.6819 71.7032 -94.1 71.3057V74.6708C-86.321 82.5869 -84.2855 88.3783 -82.1403 94.4438C-79.9951 100.509 -77.7128 107.02 -69.1868 115.546C-60.6608 124.072 -54.2664 126.32 -48.0843 128.5C-41.9023 130.679 -36.0149 132.749 -27.8796 140.884C-19.7442 149.02 -17.6744 154.887 -15.495 161.089C-13.3155 167.292 -11.0606 173.673 -2.54147 182.198C5.97768 190.724 12.379 192.973 18.5679 195.152C24.7568 197.331 30.6304 199.401 38.7726 207.537C46.9148 215.672 48.9709 221.539 51.1572 227.741C52.0856 230.554 53.2006 233.302 54.495 235.966H57.1885C55.6897 233.064 54.429 230.045 53.419 226.939C51.2806 220.744 49.0257 214.349 40.5066 205.823L40.4723 205.837ZM32.1382 214.171C23.6122 205.645 17.2177 203.397 11.0288 201.217C4.83992 199.038 -1.03369 196.968 -9.17588 188.833C-17.3181 180.698 -19.3741 174.831 -21.5605 168.628C-23.7468 162.426 -25.988 156.045 -34.514 147.519C-43.04 138.993 -49.4345 136.745 -55.6165 134.565C-61.7986 132.386 -67.6859 130.323 -75.8212 122.181C-83.9566 114.038 -86.0263 108.185 -88.2058 101.976C-89.5766 98.0214 -91.0227 93.9845 -94.1 89.3583V94.012C-92.6622 96.8314 -91.4499 99.7602 -90.4744 102.771C-88.295 108.939 -86.0401 115.354 -77.5209 123.88C-69.0018 132.406 -62.6004 134.654 -56.4184 136.834C-50.2363 139.013 -44.349 141.076 -36.2137 149.219C-28.0783 157.361 -26.0086 163.214 -23.8222 169.423C-21.6359 175.633 -19.3947 182 -10.8687 190.526C-2.34273 199.052 4.0518 201.3 10.2338 203.479C16.4159 205.659 22.3032 207.729 30.4385 215.871C38.5739 224.013 40.6231 229.804 42.7752 235.973H45.3247L45.078 235.287C42.9465 229.064 40.6985 222.683 32.1725 214.157L32.1382 214.171ZM2.66733 209.552C-3.54212 207.365 -9.40202 205.302 -17.5374 197.16C-25.6727 189.018 -27.674 183.144 -29.8603 176.976C-32.0466 170.808 -34.2878 164.393 -42.8069 155.873C-51.3261 147.354 -57.7275 145.093 -63.9164 142.92C-70.1052 140.747 -75.9788 138.671 -84.121 130.535C-89.4806 125.176 -92.2016 120.803 -94.0658 116.67V121.865C-91.774 125.654 -89.0104 129.136 -85.8413 132.228C-77.3222 140.754 -70.9277 143.002 -64.7388 145.182C-58.5499 147.361 -52.6763 149.431 -44.5341 157.566C-36.3919 165.702 -34.3358 171.568 -32.1495 177.771C-29.9632 183.974 -27.722 190.354 -19.196 198.88C-10.67 207.406 -4.27545 209.654 1.91344 211.834C8.10233 214.013 13.9759 216.083 22.1181 224.219C25.6871 227.652 28.6938 231.625 31.0279 235.993H33.7009C31.7681 231.991 28.9032 227.645 23.7904 222.526C15.3192 213.986 8.92476 211.711 2.75643 209.538L2.66733 209.552ZM-5.66679 217.879C-11.8351 215.693 -17.7293 213.63 -25.8715 205.494C-34.0137 197.359 -36.0697 191.492 -38.2561 185.29C-40.4424 179.087 -42.6904 172.706 -51.2096 164.18C-59.7287 155.654 -66.1301 153.406 -72.3121 151.227C-78.4942 149.047 -84.3815 146.984 -92.5168 138.842C-93.0857 138.28 -93.6203 137.725 -94.1343 137.177V140.603C-85.6494 149.054 -79.2754 151.302 -73.114 153.475C-66.9525 155.647 -61.0446 157.724 -52.9093 165.859C-44.7739 173.995 -42.7042 179.861 -40.5178 186.064C-38.3315 192.267 -36.0903 198.647 -27.5643 207.167C-19.0383 215.686 -12.6438 217.947 -6.46176 220.12C-0.279724 222.293 5.60759 224.369 13.7429 232.512C14.9355 233.704 15.9977 234.849 16.9504 235.938H20.062C18.6195 234.14 17.0773 232.424 15.4426 230.798C6.98517 222.293 0.590698 220.045 -5.59819 217.865L-5.66679 217.879ZM-34.1987 213.821C-42.3409 205.686 -44.4039 199.826 -46.5902 193.617C-48.7765 187.407 -51.0177 181.04 -59.5437 172.514C-68.0697 163.988 -74.4641 161.74 -80.6462 159.561C-85.0051 158.026 -89.1996 156.545 -94.1343 152.981V155.894C-89.4806 158.992 -85.4164 160.424 -81.4412 161.822C-75.2729 164.009 -69.3787 166.072 -61.2365 174.207C-53.0943 182.342 -51.0383 188.209 -48.8519 194.419C-46.6656 200.628 -44.4244 206.995 -35.8984 215.521C-27.3724 224.047 -20.9779 226.295 -14.7959 228.475C-10.0737 230.133 -5.55712 231.73 -0.0878677 235.973H3.68852C-3.16518 230.024 -8.64808 228.091 -13.994 226.213C-20.1349 224.013 -25.9948 221.95 -34.1301 213.808L-34.1987 213.821ZM-42.478 222.142C-50.6202 214.007 -52.6831 208.14 -54.8626 201.937C-57.042 195.735 -59.2969 189.354 -67.8161 180.828C-76.3352 172.302 -82.7366 170.054 -88.9255 167.881C-90.6458 167.271 -92.3523 166.675 -94.0795 165.948V168.539C-92.5991 169.128 -91.153 169.636 -89.7205 170.143C-83.5111 172.329 -77.6511 174.392 -69.5158 182.527C-61.3804 190.663 -59.3106 196.53 -57.1312 202.732C-54.9517 208.935 -52.6968 215.316 -44.1708 223.835C-36.7208 231.292 -30.8884 233.951 -25.4122 235.959H-18.3598C-19.6826 235.438 -20.9848 234.986 -22.2733 234.526C-28.4622 232.347 -34.3289 230.277 -42.478 222.142ZM-63.1967 210.271C-65.3762 204.103 -67.6242 197.688 -76.1502 189.162C-83.2232 182.089 -88.8364 179.334 -94.0795 177.353V179.923C-89.2271 181.822 -84.2375 184.467 -77.843 190.889C-69.7077 199.024 -67.6448 204.884 -65.4584 211.094C-63.2721 217.303 -61.0309 223.67 -52.5049 232.196C-51.0725 233.629 -49.7086 234.876 -48.3927 235.986H-44.5341C-46.7577 234.314 -48.856 232.482 -50.8121 230.503C-58.9269 222.334 -60.9829 216.474 -63.183 210.271H-63.1967ZM-84.4843 197.496C-87.3705 194.54 -90.5905 191.929 -94.0795 189.717V192.561C-91.2364 194.509 -88.5898 196.728 -86.1771 199.189C-78.0418 207.331 -75.9788 213.191 -73.7925 219.394C-72.0174 224.431 -70.1943 229.606 -64.9786 235.959H-61.8259C-67.775 229.249 -69.6049 224.054 -71.5308 218.598C-73.6897 212.416 -75.9446 206.015 -84.4706 197.496H-84.4843ZM-92.8115 205.823C-93.2364 205.398 -93.6614 204.994 -94.0795 204.596V207.962C-86.3005 215.871 -84.2649 221.635 -82.1197 227.728C-81.1909 230.539 -80.0782 233.287 -78.7888 235.952H-76.0611C-77.5627 233.052 -78.8234 230.033 -79.8306 226.926C-82.0238 220.744 -84.2855 214.349 -92.7978 205.823H-92.8115ZM-94.0795 222.642V227.303C-92.6562 230.089 -91.4553 232.983 -90.4881 235.959H-87.9454L-88.1921 235.274C-89.5697 231.305 -90.9953 227.268 -94.0658 222.642H-94.0795Z" fill="#FCAD10"/>
</g>
</g>
<g opacity="0.6">
<mask id="mask3_57:560" style="mask-type:alpha" maskUnits="userSpaceOnUse" x="458" y="369" width="235" height="236">
<circle cx="575.5" cy="487.22" r="117.5" fill="#C4C4C4"/>
</mask>
<g mask="url(#mask3_57:560)">
<path d="M571.076 306.025L646.442 375.91L716.467 310.981V307.786L646.458 372.7L571.087 302.815L495.726 372.7L433.841 315.319V318.545L495.71 375.91L571.076 306.025Z" fill="#E22153"/>
<path d="M571.076 317.751L646.442 387.63L716.467 322.706V319.512L646.458 384.42L571.087 314.54L495.726 384.42L433.841 327.044V330.265L495.71 387.63L571.076 317.751Z" fill="#E22153"/>
<path d="M571.076 329.476L646.442 399.355L716.467 334.431V331.232L646.458 396.145L571.087 326.266L495.726 396.145L433.841 338.769V341.991L495.71 399.355L571.076 329.476Z" fill="#E22153"/>
<path d="M571.076 341.201L646.442 411.081L716.467 346.151V342.957L646.458 407.87L571.087 337.991L495.726 407.87L433.841 350.489V353.716L495.71 411.081L571.076 341.201Z" fill="#E22153"/>
<path d="M571.076 352.921L646.442 422.801L716.467 357.877V354.682L646.458 419.59L571.087 349.711L495.726 419.59L433.841 362.214V365.441L495.71 422.801L571.076 352.921Z" fill="#E22153"/>
<path d="M571.076 364.647L646.442 434.526L716.467 369.602V366.402L646.458 431.315L571.087 361.436L495.726 431.315L433.841 373.94V377.161L495.71 434.526L571.076 364.647Z" fill="#E22153"/>
<path d="M571.076 376.372L646.442 446.251L716.467 381.322V378.127L646.458 443.041L571.087 373.161L495.726 443.041L433.841 385.66V388.886L495.71 446.251L571.076 376.372Z" fill="#E22153"/>
<path d="M571.076 388.092L646.442 457.977L716.467 393.047V389.853L646.458 454.766L571.087 384.881L495.726 454.766L433.841 397.385V400.612L495.71 457.977L571.076 388.092Z" fill="#E22153"/>
<path d="M571.076 399.817L646.442 469.696L716.467 404.772V401.578L646.458 466.486L571.087 396.607L495.726 466.486L433.841 409.11V412.337L495.71 469.696L571.076 399.817Z" fill="#E22153"/>
<path d="M571.076 411.542L646.442 481.422L716.467 416.498V413.298L646.458 478.211L571.087 408.332L495.726 478.211L433.841 420.836V424.057L495.71 481.422L571.076 411.542Z" fill="#E22153"/>
<path d="M571.076 423.268L646.442 493.147L716.467 428.218V425.023L646.458 489.937L571.087 420.057L495.726 489.937L433.841 432.556V435.782L495.71 493.147L571.076 423.268Z" fill="#E22153"/>
<path d="M571.076 434.988L646.442 504.872L716.467 439.943V436.749L646.458 501.662L571.087 431.777L495.726 501.662L433.841 444.281V447.507L495.71 504.872L571.076 434.988Z" fill="#E22153"/>
<path d="M571.076 446.713L646.442 516.592L716.467 451.668V448.474L646.458 513.382L571.087 443.502L495.726 513.382L433.841 456.006V459.227L495.71 516.592L571.076 446.713Z" fill="#E22153"/>
<path d="M571.076 458.438L646.442 528.318L716.467 463.394V460.194L646.458 525.107L571.087 455.228L495.726 525.107L433.841 467.732V470.953L495.71 528.318L571.076 458.438Z" fill="#E22153"/>
<path d="M571.076 470.164L646.442 540.043L716.467 475.113V471.919L646.458 536.832L571.087 466.953L495.726 536.832L433.841 479.451V482.678L495.71 540.043L571.076 470.164Z" fill="#E22153"/>
<path d="M571.076 481.883L646.442 551.763L716.467 486.839V483.644L646.458 548.552L571.087 478.673L495.726 548.552L433.841 491.177V494.403L495.71 551.763L571.076 481.883Z" fill="#E22153"/>
<path d="M571.076 493.609L646.442 563.488L716.467 498.564V495.37L646.458 560.278L571.087 490.398L495.726 560.278L433.841 502.902V506.123L495.71 563.488L571.076 493.609Z" fill="#E22153"/>
<path d="M571.076 505.334L646.442 575.213L716.467 510.284V507.09L646.458 572.003L571.087 502.124L495.726 572.003L433.841 514.622V517.849L495.71 575.213L571.076 505.334Z" fill="#E22153"/>
<path d="M571.076 517.059L646.442 586.939L716.467 522.009V518.815L646.458 583.728L571.087 513.849L495.726 583.728L433.841 526.347V529.574L495.71 586.939L571.076 517.059Z" fill="#E22153"/>
<path d="M571.076 528.779L646.442 598.659L716.467 533.735V530.54L646.458 595.448L571.087 525.569L495.726 595.448L433.841 538.073V541.299L495.71 598.659L571.076 528.779Z" fill="#E22153"/>
<path d="M571.076 540.505L646.442 610.384L716.467 545.46V542.26L646.458 607.174L571.087 537.294L495.726 607.174L433.841 549.798V553.019L495.71 610.384L571.076 540.505Z" fill="#E22153"/>
<path d="M571.076 552.23L646.442 622.109L716.467 557.18V553.985L646.458 618.899L571.087 549.019L495.726 618.899L433.841 561.518V564.744L495.71 622.109L571.076 552.23Z" fill="#E22153"/>
<path d="M571.076 563.95L646.442 633.835L716.467 568.905V565.711L646.458 630.624L571.087 560.739L495.726 630.624L433.841 573.243V576.47L495.71 633.835L571.076 563.95Z" fill="#E22153"/>
<path d="M571.076 575.675L646.442 645.555L716.467 580.631V577.436L646.458 642.344L571.087 572.465L495.726 642.344L433.841 584.968V588.19L495.71 645.555L571.076 575.675Z" fill="#E22153"/>
<path d="M571.076 587.4L646.442 657.28L716.467 592.356V589.156L646.458 654.069L571.087 584.19L495.726 654.069L433.841 596.694V599.915L495.71 657.28L571.076 587.4Z" fill="#E22153"/>
<path d="M571.076 599.126L646.442 669.005L716.467 604.076V600.881L646.458 665.795L571.087 595.915L495.726 665.795L433.841 608.414V611.64L495.71 669.005L571.076 599.126Z" fill="#E22153"/>
</g>
</g>
</g>
</svg>
