<svg width="721" height="291" viewBox="0 0 721 291" fill="none" xmlns="http://www.w3.org/2000/svg">
<g opacity="0.2">
<path d="M8 192.82C21.5095 197.284 62.3381 193.712 117.577 143.709C186.625 81.2049 221.5 44 294.701 44C367.902 44 446.307 151.15 507.851 215.142C569.394 279.135 635.44 320.804 721 261.276" stroke="#1A1A1A"/>
<path d="M1 155.802C14.3608 160.266 54.7402 156.695 109.371 106.698C177.66 44.2006 223.68 7 284.546 7C367.68 7 434.485 114.138 495.351 178.123C570.371 256.988 636.381 294.189 721 234.668" stroke="#1A1A1A"/>
<path d="M1 90.2254C14.444 94.6956 47.3071 106.616 107.058 64.8942C183.285 11.6678 207.141 -26 286.311 -26C365.481 -26 435.71 94.0276 501.415 166.219C604.485 279.464 664.237 255.623 721 216.881" stroke="black"/>
<path d="M1 54.5671C14.444 59.0265 47.3071 70.9184 107.058 29.2969C183.285 -23.8013 214.122 -48 286.311 -48C358.5 -48 440.74 73.1529 502.909 148.215C614.942 283.485 674.693 226.999 721 200.242" stroke="#1A1A1A"/>
</g>
</svg>
