<svg width="38" height="38" viewBox="0 0 38 38" fill="none" xmlns="http://www.w3.org/2000/svg">
<path fill-rule="evenodd" clip-rule="evenodd" d="M4 0C1.79086 0 0 1.79086 0 4V34C0 36.2091 1.79086 38 4 38H34C36.2091 38 38 36.2091 38 34V4C38 1.79086 36.2091 0 34 0H4Z" fill="white"/>
<path fill-rule="evenodd" clip-rule="evenodd" d="M27.64 19.2046C27.64 18.5664 27.5827 17.9527 27.4764 17.3636H19V20.845H23.8436C23.635 21.97 23.0009 22.9232 22.0477 23.5614V25.8196H24.9564C26.6582 24.2527 27.64 21.9455 27.64 19.2046Z" fill="#4285F4"/>
<path fill-rule="evenodd" clip-rule="evenodd" d="M19 28C21.43 28 23.4673 27.1941 24.9564 25.8195L22.0477 23.5613C21.2418 24.1013 20.2109 24.4204 19 24.4204C16.6559 24.4204 14.6718 22.8372 13.9641 20.71H10.9573V23.0418C12.4382 25.9831 15.4818 28 19 28Z" fill="#34A853"/>
<path fill-rule="evenodd" clip-rule="evenodd" d="M13.9641 20.7099C13.7841 20.1699 13.6818 19.5931 13.6818 18.9999C13.6818 18.4068 13.7841 17.8299 13.9641 17.2899V14.9581H10.9573C10.3477 16.1731 10 17.5477 10 18.9999C10 20.4522 10.3477 21.8268 10.9573 23.0418L13.9641 20.7099Z" fill="#FBBC05"/>
<path fill-rule="evenodd" clip-rule="evenodd" d="M19 13.5795C20.3214 13.5795 21.5077 14.0336 22.4405 14.9255L25.0218 12.3441C23.4632 10.8918 21.4259 10 19 10C15.4818 10 12.4382 12.0168 10.9573 14.9582L13.9641 17.29C14.6718 15.1627 16.6559 13.5795 19 13.5795Z" fill="#EA4335"/>
</svg>
