<svg width="32" height="32" viewBox="0 0 32 32" fill="none" xmlns="http://www.w3.org/2000/svg">
<path fill-rule="evenodd" clip-rule="evenodd" d="M14.8636 8.19696C15.1565 7.90406 15.1565 7.42919 14.8636 7.1363C14.5707 6.8434 14.0958 6.8434 13.8029 7.1363L5.80451 15.1347L5.80292 15.1363C5.80241 15.1368 5.80189 15.1373 5.80138 15.1378L5.80133 15.1379C5.79274 15.1465 5.7844 15.1553 5.77632 15.1643C5.71749 15.2294 5.6721 15.3023 5.64016 15.3795C5.60376 15.4673 5.58355 15.5635 5.58326 15.6644L5.58325 15.6666L5.58326 15.6689C5.58326 15.6691 5.58326 15.6693 5.58326 15.6695C5.58363 15.7701 5.60383 15.8661 5.64015 15.9537C5.6765 16.0415 5.73025 16.1239 5.80142 16.1955M5.80329 16.1973C5.80317 16.1972 5.80305 16.1971 5.80292 16.197L5.80329 16.1973ZM5.80329 16.1973L13.8029 24.197C14.0958 24.4898 14.5707 24.4898 14.8636 24.197C15.1565 23.9041 15.1565 23.4292 14.8636 23.1363L8.14391 16.4166H24.9999C25.4141 16.4166 25.7499 16.0808 25.7499 15.6666C25.7499 15.2524 25.4141 14.9166 24.9999 14.9166H8.14391L14.8636 8.19696" fill="#1A1A1A"/>
</svg>
